<svg width="18" height="20" viewBox="0 0 18 20" fill="none" xmlns="http://www.w3.org/2000/svg">
<path d="M17.6 14.1325L15.6505 10.5333V6.78571C15.6505 3.04406 12.6064 0 8.86475 0C5.12308 0 2.07901 3.04406 2.07901 6.78571V10.5333L0.12936 14.1325C0.040945 14.2957 -0.00355445 14.4791 0.000221803 14.6647C0.00399806 14.8502 0.0559205 15.0316 0.150901 15.1911C0.245882 15.3506 0.380663 15.4826 0.542038 15.5744C0.703413 15.6661 0.885846 15.7143 1.07146 15.7143H4.9525C4.94168 15.833 4.93621 15.9522 4.93612 16.0714C4.93612 17.1133 5.35002 18.1126 6.08677 18.8493C6.82352 19.5861 7.82278 20 8.8647 20C9.90663 20 10.9059 19.5861 11.6426 18.8493C12.3794 18.1126 12.7933 17.1133 12.7933 16.0714C12.7933 15.9509 12.7875 15.832 12.7769 15.7143H16.6579C16.8435 15.7143 17.0259 15.666 17.1873 15.5743C17.3486 15.4826 17.4834 15.3505 17.5784 15.1911C17.6733 15.0316 17.7252 14.8502 17.729 14.6647C17.7328 14.4791 17.6884 14.2957 17.6 14.1325ZM11.3648 16.0714C11.365 16.415 11.2945 16.7549 11.1575 17.07C11.0206 17.3851 10.8202 17.6686 10.5688 17.9027C10.3174 18.1369 10.0204 18.3168 9.69645 18.4311C9.37246 18.5454 9.02838 18.5917 8.6857 18.567C8.34302 18.5424 8.00909 18.4475 7.70475 18.2881C7.40041 18.1286 7.1322 17.9082 6.91684 17.6405C6.70149 17.3728 6.54362 17.0636 6.45309 16.7322C6.36256 16.4008 6.34131 16.0543 6.39067 15.7143H11.3388C11.3559 15.8326 11.3646 15.9519 11.3648 16.0714ZM1.67106 14.2857L3.50759 10.8953V6.78571C3.50759 5.36491 4.072 4.0023 5.07666 2.99764C6.08132 1.99298 7.44394 1.42857 8.86475 1.42857C10.2856 1.42857 11.6482 1.99298 12.6528 2.99764C13.6575 4.0023 14.2219 5.36491 14.2219 6.78571V10.8953L16.0583 14.2857H1.67106Z" fill="#5A5A5A"/>
<ellipse cx="14.2916" cy="3.57288" rx="3.57289" ry="3.57288" fill="#FC003C"/>
</svg>
