<svg width="20" height="20" viewBox="0 0 20 20" fill="none" xmlns="http://www.w3.org/2000/svg">
<g clip-path="url(#clip0_296_2246)">
<path fill-rule="evenodd" clip-rule="evenodd" d="M17.5007 9.99967C17.5007 10.9846 17.3067 11.9599 16.9297 12.8698C16.5528 13.7797 16.0004 14.6065 15.304 15.303C14.6075 15.9994 13.7807 16.5519 12.8708 16.9288C11.9608 17.3057 10.9856 17.4997 10.0007 17.4997C9.01574 17.4997 8.04047 17.3057 7.13053 16.9288C6.22058 16.5519 5.39379 15.9994 4.69735 15.303C4.00091 14.6065 3.44846 13.7797 3.07155 12.8698C2.69464 11.9599 2.50065 10.9846 2.50065 9.99967C2.50065 8.01055 3.29083 6.1029 4.69735 4.69637C6.10387 3.28985 8.01153 2.49967 10.0007 2.49967C11.9898 2.49967 13.8974 3.28985 15.304 4.69637C16.7105 6.1029 17.5007 8.01055 17.5007 9.99967ZM10.0007 19.1663C15.0632 19.1663 19.1673 15.0622 19.1673 9.99967C19.1673 4.93717 15.0632 0.833008 10.0007 0.833008C4.93815 0.833008 0.833984 4.93717 0.833984 9.99967C0.833984 15.0622 4.93815 19.1663 10.0007 19.1663ZM9.32899 11.6663H10.7173V11.448C10.7173 11.2069 10.7854 10.9697 10.9215 10.7363C11.1257 10.3863 11.2232 10.2872 11.4173 10.0888C11.6118 9.89051 11.8062 9.68634 12.0007 9.47634C12.1951 9.26634 12.3604 9.01745 12.4965 8.72967C12.6326 8.4419 12.7007 8.13467 12.7007 7.80801C12.7007 7.10801 12.4537 6.5694 11.9598 6.19217C11.4654 5.8144 10.8529 5.62579 10.1223 5.62634C9.27454 5.62634 8.59787 5.84801 8.09232 6.29134C7.58676 6.73467 7.33398 7.39579 7.33398 8.27467H8.76899C8.76899 7.8469 8.88565 7.51829 9.11899 7.28884C9.35232 7.0594 9.65565 6.94467 10.029 6.94467C10.3707 6.94467 10.6409 7.03023 10.8398 7.20134C11.0382 7.37245 11.1373 7.62523 11.1373 7.95967C11.1373 8.17745 11.0751 8.39134 10.9507 8.60134C10.764 8.91634 10.6765 9.00551 10.5015 9.18468C10.3265 9.36356 10.1495 9.55023 9.97065 9.74467C9.78368 9.9509 9.63016 10.1851 9.51565 10.4388C9.39065 10.7072 9.32843 10.993 9.32899 11.2963V11.6663ZM10.0007 14.7497C10.2659 14.7497 10.5202 14.6443 10.7078 14.4568C10.8953 14.2692 11.0007 14.0149 11.0007 13.7497C11.0007 13.4845 10.8953 13.2301 10.7078 13.0426C10.5202 12.855 10.2659 12.7497 10.0007 12.7497C9.73543 12.7497 9.48108 12.855 9.29354 13.0426C9.10601 13.2301 9.00065 13.4845 9.00065 13.7497C9.00065 14.0149 9.10601 14.2692 9.29354 14.4568C9.48108 14.6443 9.73543 14.7497 10.0007 14.7497Z" fill="#5A5A5A"/>
</g>
<defs>
<clipPath id="clip0_296_2246">
<rect width="20" height="20" fill="white"/>
</clipPath>
</defs>
</svg>
