<svg width="32" height="29" viewBox="0 0 32 29" fill="none" xmlns="http://www.w3.org/2000/svg">
<path d="M25.4908 22.864L22.6627 25.1696L5.82818 8.65606L6.04443 5.53742L8.36469 3.66386L7.53683 5.45957" fill="#0052FF"/>
<path d="M8.7534 19.5572C4.27232 14.08 3.08817 7.69317 6.26641 5.36196C9.44479 3.03046 16.066 5.52402 20.4602 11.0097C24.8542 16.4949 25.8276 22.8265 22.6703 25.1675C19.5133 27.5085 12.9108 24.6169 8.7534 19.5572Z" fill="#1449B9"/>
<path d="M17.18 22.592L14.8533 24.5476C14.8533 24.5476 11.2552 22.6692 9.67364 20.5737L11.9949 18.5609" fill="#709EFF"/>
<path d="M11.1461 17.6257C6.66512 12.1482 5.48126 5.76154 8.6595 3.43033C11.8379 1.09883 18.4588 3.59226 22.853 9.07793C27.2473 14.5633 28.2207 20.8949 25.0634 23.2358C21.9059 25.5771 15.3039 22.6852 11.1461 17.6257Z" fill="#F2F5FF"/>
<g filter="url(#filter0_i_1055_2088)">
<path d="M23.4705 21.26C26.0657 19.3524 25.258 14.1696 21.6661 9.68381C18.0742 5.19805 13.0587 3.1081 10.4634 5.01566C7.86822 6.92323 8.67627 12.1062 12.2679 16.5918C15.8597 21.0776 20.8753 23.1676 23.4705 21.26Z" fill="#99BAFF"/>
</g>
<path d="M20.8991 18.457C22.5717 17.2276 22.0511 13.8872 19.7362 10.9961C17.4212 8.10503 14.1886 6.75805 12.516 7.98749C10.8434 9.21692 11.3641 12.5574 13.6789 15.4484C15.9939 18.3395 19.2265 19.6865 20.8991 18.457Z" fill="#F2F5FF"/>
<path d="M12.7128 4.91953C16.455 5.44341 19.3277 8.27852 21.4796 11.1249C23.6319 13.9712 25.6354 17.9754 23.6169 21.1373C26.0316 19.1435 25.1871 14.0744 21.6654 9.6807C18.0723 5.19301 13.0572 3.1057 10.4663 5.01146L10.3429 5.11178C11.0983 4.86459 11.911 4.79855 12.7128 4.91953Z" fill="#0052FF"/>
<path d="M20.0908 17.2757L19.2805 18.0168L20.0908 17.2757Z" fill="#272727"/>
<defs>
<filter id="filter0_i_1055_2088" x="8.94292" y="4.30957" width="16.0483" height="18.1646" filterUnits="userSpaceOnUse" color-interpolation-filters="sRGB">
<feFlood flood-opacity="0" result="BackgroundImageFix"/>
<feBlend mode="normal" in="SourceGraphic" in2="BackgroundImageFix" result="shape"/>
<feColorMatrix in="SourceAlpha" type="matrix" values="0 0 0 0 0 0 0 0 0 0 0 0 0 0 0 0 0 0 127 0" result="hardAlpha"/>
<feOffset dy="0.507876"/>
<feGaussianBlur stdDeviation="0.952268"/>
<feComposite in2="hardAlpha" operator="arithmetic" k2="-1" k3="1"/>
<feColorMatrix type="matrix" values="0 0 0 0 0 0 0 0 0 0 0 0 0 0 0 0 0 0 0.25 0"/>
<feBlend mode="normal" in2="shape" result="effect1_innerShadow_1055_2088"/>
</filter>
</defs>
</svg>
