<svg width="36" height="36" viewBox="0 0 36 36" fill="none" xmlns="http://www.w3.org/2000/svg">
<path d="M9.62058 3.87801C12.0414 2.44682 14.8656 1.62549 17.8816 1.62549C26.8595 1.62549 34.1376 8.90358 34.1376 17.8816C34.1376 17.9354 34.1374 17.9892 34.1368 18.043M3.87068 9.63298C2.44401 12.0511 1.62549 14.8707 1.62549 17.8816C1.62549 25.4562 6.80619 31.8209 13.8175 33.6255M32.0368 25.8805C29.8903 29.6708 26.2654 32.5136 21.9456 33.6255M21.2779 8.73553C20.2203 8.34262 19.076 8.12792 17.8816 8.12792C12.4948 8.12792 8.12792 12.4948 8.12792 17.8816C8.12792 19.0825 8.34495 20.2327 8.74194 21.2951M27.0258 14.4802C27.4198 15.5393 27.6352 16.6853 27.6352 17.8816C27.6352 23.2683 23.2683 27.6352 17.8816 27.6352C16.6951 27.6352 15.5581 27.4234 14.5064 27.0354M17.8816 14.6303V21.1328" stroke="black" stroke-width="3.25121" stroke-linecap="round" stroke-linejoin="round"/>
</svg>
