<svg width="32" height="32" viewBox="0 0 32 32" fill="none" xmlns="http://www.w3.org/2000/svg">
<path d="M24 14.3333C23.4533 14.3333 23 13.88 23 13.3333V10.6666C23 6.46663 21.8133 3.66663 16 3.66663C10.1867 3.66663 9 6.46663 9 10.6666V13.3333C9 13.88 8.54667 14.3333 8 14.3333C7.45333 14.3333 7 13.88 7 13.3333V10.6666C7 6.79996 7.93333 1.66663 16 1.66663C24.0667 1.66663 25 6.79996 25 10.6666V13.3333C25 13.88 24.5467 14.3333 24 14.3333Z" fill="#131313"/>
<path d="M15.9993 25.6667C13.6127 25.6667 11.666 23.72 11.666 21.3333C11.666 18.9467 13.6127 17 15.9993 17C18.386 17 20.3327 18.9467 20.3327 21.3333C20.3327 23.72 18.386 25.6667 15.9993 25.6667ZM15.9993 19C14.7193 19 13.666 20.0533 13.666 21.3333C13.666 22.6133 14.7193 23.6667 15.9993 23.6667C17.2793 23.6667 18.3327 22.6133 18.3327 21.3333C18.3327 20.0533 17.2793 19 15.9993 19Z" fill="#131313"/>
<path d="M22.666 30.3334H9.33268C3.45268 30.3334 1.66602 28.5467 1.66602 22.6667V20C1.66602 14.12 3.45268 12.3334 9.33268 12.3334H22.666C28.546 12.3334 30.3327 14.12 30.3327 20V22.6667C30.3327 28.5467 28.546 30.3334 22.666 30.3334ZM9.33268 14.3334C4.55935 14.3334 3.66602 15.24 3.66602 20V22.6667C3.66602 27.4267 4.55935 28.3334 9.33268 28.3334H22.666C27.4393 28.3334 28.3327 27.4267 28.3327 22.6667V20C28.3327 15.24 27.4393 14.3334 22.666 14.3334H9.33268Z" fill="#131313"/>
</svg>
