<svg width="110" height="24" viewBox="0 0 110 24" fill="none" xmlns="http://www.w3.org/2000/svg">
<g clip-path="url(#clip0_352_8581)">
<mask id="mask0_352_8581" style="mask-type:luminance" maskUnits="userSpaceOnUse" x="0" y="0" width="110" height="24">
<path d="M110 0H0V24H110V0Z" fill="white"/>
</mask>
<g mask="url(#mask0_352_8581)">
<path fill-rule="evenodd" clip-rule="evenodd" d="M4.02209 10.9369H10.0602C11.0235 10.9369 11.8397 10.3167 12.1047 9.38388L13.1153 5.82341C13.3046 5.15623 13.184 4.49977 12.7687 3.94518C12.3536 3.39118 11.7605 3.09332 11.0715 3.09332H10.5369C9.57348 3.09332 8.75739 3.71345 8.49242 4.64631L8.08259 6.08968C8.07904 6.1022 8.07607 6.11291 8.07312 6.12482C8.06899 6.14091 8.06426 6.157 8.05893 6.17308L8.05834 6.17486C7.92055 6.60853 7.51722 6.92246 7.04056 6.92246C6.57217 6.92246 6.17416 6.61867 6.02986 6.19572C6.0204 6.16832 6.01212 6.14032 6.00503 6.11232C5.99971 6.09028 5.99438 6.07121 5.98846 6.04917L4.71224 1.55286C4.4473 0.619995 3.63118 -0.00012207 2.6678 -0.00012207H2.13319C1.44362 -0.00012207 0.850455 0.297722 0.435889 0.852316C0.0207324 1.40691 -0.100501 2.06277 0.0893349 2.73055L1.97824 9.38388C2.24318 10.3167 3.05931 10.9369 4.02209 10.9369Z" fill="#434343"/>
<path fill-rule="evenodd" clip-rule="evenodd" d="M4.02131 13.0634H10.0595C11.0228 13.0634 11.8389 13.6829 12.1033 14.6158L13.114 18.1763C13.3032 18.8434 13.1819 19.4999 12.7674 20.0545C12.3523 20.609 11.7591 20.9063 11.0701 20.9063H10.5355C9.57215 20.9063 8.75597 20.2868 8.49105 19.3533L8.08122 17.91C8.07768 17.8975 8.07472 17.8868 8.07117 17.8742C8.06703 17.8581 8.0623 17.8421 8.05697 17.8266L8.05638 17.8248C7.91859 17.3912 7.51526 17.0772 7.0386 17.0772C6.57022 17.0772 6.17221 17.381 6.02791 17.804C6.01845 17.8314 6.01017 17.8593 6.00308 17.888C5.99775 17.91 5.99243 17.929 5.98652 17.9505L4.7097 22.4468C4.44476 23.3797 3.62863 23.9998 2.66585 23.9998H2.13123C1.44226 23.9998 0.848502 23.702 0.433936 23.148C0.0187796 22.5933 -0.102455 21.9369 0.0873817 21.2697L1.97628 14.6164C2.24123 13.6835 3.05794 13.0634 4.02131 13.0634Z" fill="#434343"/>
<path d="M21.291 19.7141V5.10843H24.4261V11.0536H29.9741V5.10843H33.1092V19.7141H29.9741V13.6867H24.4261V19.7141H21.291ZM40.9218 19.961C37.5394 19.961 35.3531 17.6776 35.3531 14.201C35.3531 10.7244 37.5394 8.441 40.9012 8.441C44.1806 8.441 46.305 10.7039 46.305 14.4067V15.0239H38.55C38.6118 16.7724 39.54 17.6159 40.9837 17.6159C42.015 17.6159 42.7368 17.1839 43.0462 16.2787L46.1606 16.4639C45.5625 18.665 43.5825 19.961 40.9218 19.961ZM43.1494 13.1313C43.0668 11.5267 42.18 10.7244 40.9012 10.7244C39.6018 10.7244 38.715 11.609 38.55 13.1313H43.1494ZM51.2651 19.7141C49.4707 19.7141 48.3776 18.8707 48.3776 16.8341V5.10843H51.4714V16.505C51.4714 17.1633 51.7807 17.4101 52.3582 17.4101H53.1007V19.7141H51.2651ZM55.1452 19.7141V8.68786H58.2389V19.7141H55.1452ZM55.0833 7.33014V4.86157H58.2802V7.33014H55.0833ZM65.9186 19.961C62.5155 19.961 60.3086 17.6776 60.3086 14.201C60.3086 10.7244 62.5155 8.441 65.9186 8.441C68.8473 8.441 70.9924 10.0456 71.3224 12.761L68.1255 12.905C67.9192 11.5473 67.0942 10.8273 65.9186 10.8273C64.3717 10.8273 63.4848 12.0616 63.4848 14.201C63.4848 16.3404 64.3717 17.5953 65.9186 17.5953C67.1148 17.5953 67.9604 16.8959 68.1255 15.3941L71.3224 15.5176C71.0129 18.233 68.9092 19.961 65.9186 19.961ZM78.1446 19.961C74.7619 19.961 72.5346 17.6981 72.5346 14.201C72.5346 10.7244 74.7619 8.441 78.1446 8.441C81.5271 8.441 83.7546 10.7244 83.7546 14.201C83.7546 17.6981 81.5271 19.961 78.1446 19.961ZM78.1446 17.5953C79.6914 17.5953 80.5577 16.3404 80.5577 14.201C80.5577 12.0616 79.6914 10.8067 78.1446 10.8067C76.5977 10.8067 75.7108 12.0616 75.7108 14.201C75.7108 16.3404 76.5977 17.5953 78.1446 17.5953ZM89.7201 19.961C86.9362 19.961 85.2035 17.7393 85.2035 14.201C85.2035 10.6833 86.9774 8.441 89.7201 8.441C91.3086 8.441 92.4843 9.11986 93.0614 10.2513V5.10843H96.1559V19.7141H93.1853L93.1233 18.089C92.505 19.2821 91.2467 19.961 89.7201 19.961ZM90.7513 17.5953C92.2366 17.5953 93.0614 16.4227 93.0614 14.201C93.0614 11.9587 92.2366 10.8067 90.7513 10.8067C89.3082 10.8067 88.3802 12.1027 88.3802 14.201C88.3802 16.2581 89.3288 17.5953 90.7513 17.5953ZM103.804 19.961C100.422 19.961 98.2355 17.6776 98.2355 14.201C98.2355 10.7244 100.422 8.441 103.784 8.441C107.063 8.441 109.187 10.7039 109.187 14.4067V15.0239H101.432C101.494 16.7724 102.422 17.6159 103.866 17.6159C104.897 17.6159 105.619 17.1839 105.929 16.2787L109.043 16.4639C108.444 18.665 106.464 19.961 103.804 19.961ZM106.032 13.1313C105.949 11.5267 105.062 10.7244 103.784 10.7244C102.484 10.7244 101.597 11.609 101.432 13.1313H106.032Z" fill="#434343"/>
</g>
</g>
<defs>
<clipPath id="clip0_352_8581">
<rect width="110" height="24" fill="white"/>
</clipPath>
</defs>
</svg>
