<svg width="32" height="32" viewBox="0 0 32 32" fill="none" xmlns="http://www.w3.org/2000/svg">
<path d="M22.666 28.3332H9.33268C4.46602 28.3332 1.66602 25.5332 1.66602 20.6666V11.3332C1.66602 6.46656 4.46602 3.66656 9.33268 3.66656H22.666C27.5327 3.66656 30.3327 6.46656 30.3327 11.3332V20.6666C30.3327 25.5332 27.5327 28.3332 22.666 28.3332ZM9.33268 5.66656C5.51935 5.66656 3.66602 7.5199 3.66602 11.3332V20.6666C3.66602 24.4799 5.51935 26.3332 9.33268 26.3332H22.666C26.4793 26.3332 28.3327 24.4799 28.3327 20.6666V11.3332C28.3327 7.5199 26.4793 5.66656 22.666 5.66656H9.33268Z" fill="#131313"/>
<path d="M16.0004 17.16C14.8804 17.16 13.747 16.8133 12.8804 16.1066L8.70702 12.7733C8.28035 12.4266 8.20036 11.8 8.54703 11.3733C8.89369 10.9466 9.52036 10.8666 9.94703 11.2133L14.1203 14.5466C15.1337 15.36 16.8537 15.36 17.867 14.5466L22.0404 11.2133C22.467 10.8666 23.107 10.9333 23.4404 11.3733C23.787 11.8 23.7204 12.44 23.2804 12.7733L19.107 16.1066C18.2537 16.8133 17.1204 17.16 16.0004 17.16Z" fill="#131313"/>
</svg>
